<svg viewBox="0 0 1024 1024" xmlns="http://www.w3.org/2000/svg" style="fill-rule:evenodd;clip-rule:evenodd;stroke-linejoin:round;stroke-miterlimit:2;">
	<path d="M972,190l-0,644c-0,76.164 -61.836,138 -138,138l-644,0c-76.164,0 -138,-61.836 -138,-138l-0,-644c-0,-76.164 61.836,-138 138,-138l644,-0c76.164,-0 138,61.836 138,138Z" style="fill:url(#_Linear1);"/>
	<path d="M299.864,972l-91.863,-337.307c-42.82,-157.23 50.066,-319.645 207.295,-362.465l540.465,-147.192c10.362,19.365 16.239,41.484 16.239,64.964l-0,644c-0,76.164 -61.836,138 -138,138l-534.136,0Z" style="fill:#afe8e0;fill-opacity:0.5;"/>
    <g id="tzm-rbc-desktop">
        <path d="M593.326,485.202l-260.898,-0c-18.385,-0 -33.311,-14.927 -33.311,-33.312l0,-250.275l425.227,0l-0,144.991l-84.706,0c-18.385,0 -46.312,27.927 -46.312,46.312l0,92.284Z" style="fill:#f6e8ea;"/>
        <path d="M713.306,154.161l13.304,49.454l-427.493,0l12.233,-48.261l401.956,-1.193Z" style="fill:#d0aaaf;"/>
        <path d="M589.456,472.644c26.484,30.256 -40.898,22.342 -53.304,22.34l-177.9,0.01c-12.392,0.008 -25.106,0.752 -37.454,0.094c-40.934,-2.176 -32.288,-54.012 -32.288,-81.648l-0.018,-191.518c-0.006,-27.696 -7.726,-65.966 25.736,-77.601c9.802,-3.409 257.148,-1.817 257.148,-1.817c16.336,-0.001 58.972,-7.1 64.024,10.533c-1.642,18.854 -24.478,13.302 -37.752,13.278c-0,-0 -271.056,-1.233 -277.368,1.027c-9.644,3.454 -8.448,17.529 -7.78,25.585l32,0.012c9.38,-0.061 27.606,-2.627 27.05,11.983c-0.71,18.744 -28.65,12.062 -41,12.496l-18.05,0c-1.078,9.78 -0.024,152.118 -0.024,152.118c-0.012,7.618 -0.026,76.67 -0.026,76.67c-0.012,9.492 -2.332,19.248 6.968,24.878c20.782,0.418 41.656,-0.004 62.446,-0.01l124.796,-0.008c11.154,0 76.038,-1.276 82.796,1.578Zm74.178,-313.123c-3.074,-17.643 10.086,-17.294 23.832,-17.11c47.198,0.629 49.004,26.926 48.986,67.237c-0,0 0.67,119.514 0.146,126.992c-1.118,15.982 -23.884,16.934 -24.346,0.186c-0.066,-2.386 0.636,-112.696 0.138,-119.408l-271.336,0c-10.526,-0.002 -21.432,0.65 -31.904,-0.11c-15.596,-1.134 -16.306,-23.211 0.158,-24.383c10.402,-0.741 21.258,-0.001 31.712,0.005l271.37,-0.003c2.02,-45.092 -33.14,-13.947 -48.756,-33.406Z" style="fill:#22181c;"/>
        <path d="M542.71,249.072c6.46,-0.382 18.574,-1.5 24.416,1.128c12.03,5.408 7.12,19.524 -3.628,22.918c-35.792,6.264 -37.4,-19.792 -20.788,-24.046Z" style="fill:#22181c;fill-rule:nonzero;"/>
        <path d="M600.978,249.072c15.532,-0.202 46.404,-5.928 54.452,8.198c0.476,9.174 -2.132,13.672 -11.364,15.848c-8.662,0.054 -40.164,1.462 -46.186,-1.356c-10.85,-5.076 -7.538,-19.99 3.098,-22.69Z" style="fill:#22181c;fill-rule:nonzero;"/>
        <path d="M554.86,319.768c-5.698,-0.086 -13.932,0.892 -18.568,-2.984c-4.978,-4.158 -4.657,-12.304 -0.712,-17.366c7.09,-9.097 97.459,-5.856 113.316,-3.842c9.897,1.257 8.804,23.384 -7.252,24.174c-9.202,0.452 -77.566,0.072 -86.784,0.018Z" style="fill:#22181c;fill-rule:nonzero;"/>
        <path d="M361.506,313.83c0.16,-16.788 -3.774,-47.68 8.376,-59.386c11.488,-11.068 32.848,-7.01 47.238,-7.014c17.908,-0.006 36.07,-0.596 53.948,0.142c29.036,1.2 27.006,23.726 26.996,46.374c-0.008,16.266 -0.452,32.662 -0.046,48.91c-0.308,15.234 -8.024,27.072 -24.438,27.604c-15.986,0.52 -78.534,2.464 -92.766,-0.448c-25.15,-5.146 -19.262,-37.728 -19.308,-56.182Z" style="fill:#22181c;fill-rule:nonzero;"/>
        <path d="M385.282,271.066l60.946,-0c9.206,0.008 18.422,0.102 27.628,-0l0,75.688l-88.574,0l-0.042,-38.34c-0.006,-6.234 -0.366,-12.712 0.042,-18.92c-0.324,-6.08 -0.018,-12.33 0,-18.428Z" style="fill:#fe7d02;fill-rule:nonzero;"/>
    </g>
    <g id="tzm-rbc-laptop">
        <path d="M139.898,814.266l437.03,-2.194c-1.762,47.18 -26.603,58.084 -54.394,56.828c-3.29,-0.149 -325.906,-1.486 -325.906,-1.486c-57.315,-3.819 -56.017,-45.988 -56.73,-53.148Z" style="fill:#d0aaaf;"/>
        <path d="M548.491,812.072c-44.647,0.139 -137.565,1.362 -137.565,1.362l-14.794,15.546l-74.202,0.252l-15.779,-14.966l-136.455,0.747l0.095,-247.834l380.305,-1.51l-1.605,246.403Z" style="fill:#f6e8ea;"/>
        <path d="M541.53,854.63c12.088,-2.159 25.652,-5.575 26.624,-31.59l-150.824,0c-5.666,20.096 -14.822,17.532 -32.026,17.5l-55.986,-0.012c-7.686,-0.002 -14.276,1.028 -20.908,-3.508c-4.516,-4.328 -5.47,-7.974 -6.12,-13.98l-150.876,0c0.714,7.16 1.387,13.136 6.092,18.938c11.366,15.764 25.389,14.488 42.67,14.468l221.434,-0.07c12.466,-0.106 30.448,-4.826 31.956,12.524c-1.806,8.8 -7.464,11.252 -16.072,11.39c-20.958,0.338 -41.964,0.066 -62.924,0.068l-169.692,0.04c-9.603,0.022 -20.338,1.028 -29.749,-0.66c-29.995,-5.378 -47.606,-30.304 -47.751,-60.11c-0.108,-22.268 11.792,-20.38 30.128,-20.192l-0.043,-58.64c-0.01,-8.91 -1.004,-19.224 0.367,-27.992c1.474,-9.432 12.774,-13.492 19.694,-7.03c7.826,7.31 3.92,31.596 4.584,41.948l0.069,0.98c-0.329,8.458 0.025,16.962 0,25.428l0,25.306l116.445,-0.048c9.736,-0.042 18.42,-1.648 25.154,6.818c1.526,3.726 1.776,7.1 1.828,11.054l69.6,0c0.782,-4.056 1.758,-7.674 3.668,-11.054c5.842,-10.334 21.694,-6.698 42.166,-6.746l98.438,-0.024l0,-224.22c-7.618,-0.27 -15.33,-0.012 -22.958,0l-334.341,0l-0.063,21.352c-0.005,3.322 -0.311,7.014 0.063,10.3c-2.226,17.394 -21.634,18.042 -24.329,2.44c-1.03,-5.962 -0.837,-30.494 0.504,-36.294c6.042,-26.142 35.838,-21.596 56.012,-21.566l295.864,-0.008c45.982,-0.05 53.372,-5.058 53.308,48.116l-0.038,199.88c13.242,-1.536 26.454,-0.862 27.846,15.422c3.746,43.798 -24.848,63.463 -46.401,65.192c-2.101,0.169 -4.135,0.167 -6.066,0c0,0 -13.097,0.128 -19.637,-0.154c-6.84,-0.294 -21.052,0.154 -21.052,0.154c-4.541,0.126 -8.432,-0.043 -10.252,-0.047c-6.078,-0.013 -12.183,-3.771 -14.08,-11.103c0.485,-9.519 7.389,-14.38 14.219,-14.261c1.623,0.029 19.488,0.287 28.398,0.286c8.353,-0.002 25.057,-0.295 25.057,-0.295Zm-372.701,-205.104c8.542,-0.538 12.746,4.024 14.348,12.066c-1.204,6.714 -3.375,10.012 -9.955,12.878c-16.757,0.936 -19.669,-18.112 -4.393,-24.944Z" style="fill:#22181c;"/>
        <path d="M241.888,745.848c6.44,-0.22 16,-1.688 22.02,0.974c9.969,4.408 7.287,19.322 -1.832,22.702c-6.352,-0.058 -17.52,1.486 -23.008,-1.4c-10.1,-5.314 -6.994,-19.484 2.82,-22.276Z" style="fill:#22181c;fill-rule:nonzero;"/>
        <path d="M432.096,746.477c8.71,-0.042 38.023,-1.476 45.091,1.52c11.989,5.078 7.266,18.826 -3.381,22.156c-7.986,-0.018 -40.918,1.544 -47.305,-1.984c-10.832,-5.988 -5.565,-19.702 5.595,-21.692Z" style="fill:#22181c;fill-rule:nonzero;"/>
        <path d="M295.042,746.379c21.33,-0.128 86.944,-1.186 97.857,1.352c19.64,4.566 13.986,18.46 -1.535,22.558c-21.562,0.85 -74.491,2.082 -90.322,-0.06c-7.963,-1.078 -14.203,-3.235 -16.447,-7.286c-4.26,-7.688 -1.276,-14.408 10.447,-16.564Z" style="fill:#22181c;fill-rule:nonzero;"/>
        <path d="M227.086,603.412c17.336,-0.562 202.888,-0.032 220.246,-0.03c20.014,0.002 59.994,-7.106 62.02,22.434c1.418,20.664 1.488,47.552 0.004,68.23c-0.886,12.338 -8.13,19.864 -19.752,24.128c-5.344,0.374 -255.218,0.318 -260.676,-0.354c-29.206,-3.588 -22.338,-32.474 -22.32,-52.598c0.018,-22.45 -7.082,-55.138 20.478,-61.81Z" style="fill:#22181c;fill-rule:nonzero;"/>
        <path d="M230.378,694.064l-0,-66.696l255.348,0c0.004,9.476 1.004,62.624 -1.086,66.02l-1.16,-0.174l-0.208,0.372c-20.132,1.718 -232.158,2.18 -252.894,0.478Z" style="fill:#fe7d02;"/>
    </g>
    <g id="tzm-rbc-phone">
        <path d="M634.024,411.236l25.561,-23.237l197.368,0.97l27.032,24.013l-1.072,370.069l-249.366,-0.961l0.477,-370.854Z" style="fill:#f6e8ea;"/>
        <path d="M883.331,783.174l-2.588,59.565l-33.824,25.269l-176.681,1.062l-31.718,-20.26l-7.336,-65.636l252.147,0Z" style="fill:#d0aaaf;"/>
        <path d="M634.8,466.563c0,0 241.644,2.394 250.634,2.528l-2.527,314.135l-248.107,-0.561c0.674,-32.618 0,-316.102 0,-316.102Z" style="fill:#fe7d02;fill-rule:nonzero;"/>
        <path d="M882.014,704.696c18.462,-1.976 14.986,17.542 14.982,29.526l0.024,72.922c0.052,32.796 -3.908,68.898 -46.57,73.366c-14.17,1.484 -38.938,-0.15 -54.058,-0.152l-96.892,-0.004c-11.008,0.006 -29.438,1.82 -39.228,-0.468c-40.6,-9.498 -40.248,-43.832 -40.21,-75.806l0.004,-360.54c0.006,-11.002 -0.432,-22.244 1.938,-33.044c6.386,-16.538 15.95,-27.438 33.426,-33.266c13.744,-3.874 41.144,-2.228 56.474,-2.222l118.612,-0.02c63.414,-0.066 66.582,18.056 66.496,79.27l-0.03,156.342c0.01,15.626 4.991,62.462 -10.95,62.178c-18.278,-0.326 -13.526,-18.042 -13.53,-31.906l0.016,-163.358c-8.99,-0.134 -18.004,-0.002 -26.998,0l-201.454,0l0.008,195.31c0.002,32.638 0.666,65.43 -0.008,98.048l228.452,0l-0.04,-36.716c-0.096,-12.564 -3.79,-22.978 9.536,-29.46Zm-9.496,91.23l-228.452,0c-0.268,21.918 -5.378,60.182 27.234,60.508l156.406,0.006c48.22,0.016 44.922,-13.826 44.812,-60.514Zm-38.346,-396.484l-149.186,-0.042c-44.93,-0.13 -41.092,11.718 -40.92,54.176l228.452,0c0.182,-36.742 7.568,-54.942 -38.346,-54.134Z" style="fill:#22181c;"/>
        <path d="M734.652,823.04c1.238,-3.782 2.992,-7.314 6.732,-9.16c8.102,-3.996 39.436,-5.754 36.948,13.726c-2.706,5.362 -4.948,8.596 -11.586,9.252c-13.914,1.374 -31.228,3.478 -32.094,-13.818Z" style="fill:#22181c;fill-rule:nonzero;"/>
        <path d="M750.54,413.072c6.874,-0.628 11.322,2.034 14.862,8.09c0.702,7.952 -0.874,13.39 -8.842,16.488c-17.014,2.374 -20.458,-18.304 -6.02,-24.578Z" style="fill:#22181c;fill-rule:nonzero;"/>
        <path d="M701.82,604.508c7.85,-0.244 30.722,-1.524 36.906,2.138c9.276,5.496 6.022,20.156 -4.074,22.196c-8.224,0.14 -33.262,1.486 -39.476,-1.702c-11.276,-5.782 -6.364,-19.768 6.644,-22.632Z" style="fill:#22181c;fill-rule:nonzero;"/>
        <path d="M701.82,560.114l74.426,0.006c11.624,-0.002 23.844,-0.872 35.388,0.046c17.532,1.392 18.896,20.706 2.61,24c-6.544,0.416 -13.3,0.016 -19.872,0.008l-74.176,-0.028c-7.63,0.004 -20.544,2.114 -27.062,-2.864c-8.78,-6.706 -2.944,-20.37 8.686,-21.168Z" style="fill:#22181c;fill-rule:nonzero;"/>
        <path d="M706.5,514.674l97.43,-0.006c33.58,0.288 22.692,24.994 6.196,24.366l-73.832,0.016c-11.16,0.006 -24.596,0.904 -35.482,-0.174c-13.052,-1.29 -20.846,-23.336 5.688,-24.202Z" style="fill:#22181c;fill-rule:nonzero;"/>
    </g>
    <defs>
        <linearGradient id="_Linear1" x1="0" y1="0" x2="1" y2="0" gradientUnits="userSpaceOnUse" gradientTransform="matrix(490.667,981.333,-981.333,490.667,512,21.3333)"><stop offset="0" style="stop-color:#84dccf;stop-opacity:1"/><stop offset="1" style="stop-color:#33b4a1;stop-opacity:1"/></linearGradient>
    </defs>
</svg>